<?xml version="1.0" standalone="no"?>
<!DOCTYPE svg PUBLIC "-//W3C//DTD SVG 20010904//EN"
 "http://www.w3.org/TR/2001/REC-SVG-20010904/DTD/svg10.dtd">
<svg version="1.0" xmlns="http://www.w3.org/2000/svg"
 width="225.000000pt" height="225.000000pt" viewBox="0 0 225.000000 225.000000"
 preserveAspectRatio="xMidYMid meet">

<g transform="translate(0.000000,225.000000) scale(0.100000,-0.100000)"
fill="#000000" stroke="none">
<path d="M0 1125 l0 -1125 1125 0 1125 0 0 1125 0 1125 -1125 0 -1125 0 0
-1125z m1557 758 c-507 -701 -683 -942 -700 -961 -20 -21 -25 -22 -235 -22
-132 0 -212 4 -210 10 2 7 496 689 695 962 l43 58 221 0 221 0 -35 -47z m150
-515 c-18 -24 -186 -253 -372 -510 l-339 -468 -219 0 c-120 0 -217 4 -215 9 2
4 167 234 367 510 l365 501 224 0 223 0 -34 -42z m29 -340 c57 -45 101 -84 97
-88 -4 -4 -109 -44 -233 -90 -124 -45 -233 -86 -244 -92 -29 -16 -20 -1 118
187 88 121 133 175 143 171 8 -3 61 -43 119 -88z"/>
</g>
</svg>
